<svg width="30" height="30" viewBox="0 0 30 30" fill="none" xmlns="http://www.w3.org/2000/svg">
<path d="M15 0.000334822C12.367 0.000334822 9.7802 0.693415 7.50002 2.00991C5.21985 3.3264 3.32615 5.21984 2.00958 7.50036C0.693089 9.78054 0 12.3673 0 15.0004C0.000334801 18.5455 1.25623 21.9757 3.54507 24.6827L0 30L7.66545 28.0841V28.0838C9.90612 29.34 12.4316 29.9997 15 29.9999C18.9784 29.9999 22.7937 28.4195 25.6064 25.6064C28.4195 22.7936 29.9999 18.9782 29.9999 15C29.9999 12.367 29.3068 9.7802 27.9903 7.50002C26.6739 5.21959 24.7801 3.32615 22.4999 2.00958C20.2197 0.693087 17.6329 0 14.9999 0L15 0.000334822ZM8.1854 12.7504H8.22524C8.82189 12.7504 9.39413 12.9874 9.81602 13.4093C10.2382 13.8312 10.4753 14.4038 10.4753 15.0003C10.4753 15.5969 10.2382 16.1692 9.81602 16.5914C9.39414 17.0133 8.8219 17.2503 8.22524 17.2503C7.62826 17.2503 7.05601 17.0133 6.63421 16.5914C6.21233 16.1692 5.97528 15.5969 5.97528 15.0003C5.97494 14.4104 6.20664 13.8439 6.62014 13.423C7.03365 13.0025 7.59583 12.7607 8.18546 12.7504L8.1854 12.7504ZM14.9588 12.7504H14.997C15.594 12.7504 16.1662 12.9874 16.588 13.4093C17.0098 13.8312 17.247 14.4038 17.247 15.0003C17.247 15.5969 17.0099 16.1692 16.588 16.5914C16.1661 17.0133 15.5939 17.2503 14.997 17.2503C14.4003 17.2503 13.8281 17.0133 13.4062 16.5914C12.984 16.1692 12.7469 15.5969 12.7469 15.0003C12.7469 14.41 12.9786 13.8435 13.3925 13.4227C13.8063 13.0018 14.3689 12.7604 14.9591 12.7503L14.9588 12.7504ZM21.7366 12.7504H21.7369H21.7748C22.3718 12.7504 22.944 12.9874 23.3658 13.4093C23.7877 13.8312 24.0247 14.4038 24.0247 15.0003C24.0247 15.5969 23.7877 16.1692 23.3658 16.5914C22.9439 17.0133 22.3717 17.2503 21.7748 17.2503C21.1781 17.2503 20.6059 17.0133 20.184 16.5914C19.7618 16.1692 19.5247 15.5969 19.5247 15.0003C19.5247 14.41 19.7568 13.8435 20.1703 13.4227C20.5841 13.0018 21.1466 12.7604 21.7369 12.7503L21.7366 12.7504Z" fill="white"/>
</svg>
