<svg width="24" height="30" viewBox="0 0 24 30" fill="none" xmlns="http://www.w3.org/2000/svg">
<path d="M19.9997 8.46194C19.9997 13.135 16.2114 16.9232 11.5384 16.9232C6.86551 16.9232 3.07715 13.1349 3.07715 8.46194C3.07715 3.78862 6.86551 0 11.5384 0C16.2114 0 19.9997 3.78836 19.9997 8.46194" fill="white"/>
<path d="M0 23.8462V26.9232C0.00231797 27.7384 0.327348 28.5198 0.903754 29.0962C1.48042 29.6729 2.26159 29.9977 3.077 30H20.0002H20C20.8154 29.9976 21.5965 29.6729 22.1732 29.0962C22.7496 28.5198 23.0746 27.7384 23.077 26.9232V23.8462C23.0739 22.1989 22.6319 20.5823 21.7964 19.1626C20.9609 17.743 19.762 16.5716 18.3233 15.7693C16.4877 17.4986 14.0608 18.4616 11.5387 18.4616C9.01658 18.4616 6.58976 17.4986 4.75409 15.7693C3.31542 16.5716 2.11648 17.7427 1.2807 19.1626C0.445191 20.5823 0.00323672 22.1989 0.000137832 23.8462H0Z" fill="white"/>
</svg>
