<svg width="30" height="30" viewBox="0 0 30 30" fill="none" xmlns="http://www.w3.org/2000/svg">
<path d="M29.9777 18.0501C29.2054 21.6157 27.1724 24.7834 24.2528 26.9712C21.3332 29.1591 17.7227 30.221 14.0837 29.9616C10.4443 29.7026 7.02062 28.1393 4.44052 25.5595C1.86041 22.9796 0.297487 19.556 0.0383772 15.9163C-0.221014 12.2769 0.840949 8.66633 3.02878 5.74717C5.21697 2.82757 8.38469 0.794619 11.9499 0.0223031C12.3408 -0.0632453 12.7435 0.102011 12.9617 0.437337C13.1798 0.772658 13.1675 1.20796 12.9311 1.53059C10.8213 4.40965 10.2217 8.12672 11.3202 11.5229C12.4182 14.9191 15.0809 17.5818 18.477 18.6798C21.8731 19.7781 25.5902 19.1786 28.4693 17.0688C28.7919 16.8325 29.2272 16.8201 29.5626 17.0382C29.8979 17.2564 30.0632 17.6591 29.9776 18.0501L29.9777 18.0501Z" fill="white"/>
</svg>
