<svg width="30" height="30" viewBox="0 0 30 30" fill="none" xmlns="http://www.w3.org/2000/svg">
<path d="M4.04491 17.8651C4.38208 19.0448 4.88748 20.2246 5.56184 21.4043L3.70777 23.2584C2.8652 24.101 2.8652 24.6068 3.53919 25.2807L5.39325 27.1347C6.06724 27.8087 6.74162 27.8087 7.41553 26.9661L9.4378 24.9439C10.4489 25.4496 11.4601 25.955 12.4717 26.1236V28.4831C12.4717 29.6628 12.8088 30 13.82 30H16.5167C17.5278 30 17.865 29.6628 17.865 28.4831V26.1236C18.8762 25.7864 19.8873 25.4496 20.8989 24.9439L22.9212 26.9661C23.7637 27.8087 24.2695 27.8087 24.9434 27.1347L26.7975 25.2807C27.4715 24.6067 27.4715 24.101 26.6289 23.2584L24.6066 21.2361C25.2806 20.225 25.7863 19.0452 26.1236 17.6969H28.6516C29.6628 17.6969 30 17.3597 30 16.18V13.8205C30 12.6408 29.6628 12.3035 28.6516 12.3035H26.1236C25.7864 11.2924 25.4496 10.2813 24.9439 9.26968L26.7979 7.41562C27.6405 6.57305 27.6405 6.06725 26.9665 5.39334L25.2807 3.70784C24.6067 3.03386 23.9323 3.03386 23.2584 3.87643L21.5729 5.56193C20.5618 4.88795 19.382 4.38223 18.0337 4.045V1.51693C18.0337 0.337227 17.6965 0 16.6853 0H13.9887C12.9775 0 12.6403 0.337173 12.6403 1.51693V3.87643C11.4606 4.2136 10.2808 4.719 9.10112 5.39336L7.41562 3.70786C6.40448 2.86529 5.89869 2.86529 5.05612 3.70786L3.20205 5.56193C2.52807 6.23591 2.52807 6.74163 3.37064 7.5842L5.2247 9.43827C4.71895 10.4494 4.21357 11.4605 4.045 12.4721L1.34836 12.4718C0.337227 12.4718 0 12.809 0 13.9887V16.3482C0 17.5279 0.337173 17.8651 1.34836 17.8651L4.04491 17.8651ZM10.7862 15.1685C10.7862 12.6404 12.8085 10.7863 15.1683 10.7863C17.6964 10.7863 19.5504 12.8086 19.5504 15.1685C19.5504 17.528 17.5282 19.5506 15.1683 19.5506C12.6402 19.5506 10.7862 17.6965 10.7862 15.1685Z" fill="white"/>
</svg>
