<svg width="203" height="240" viewBox="0 0 203 240" fill="none" xmlns="http://www.w3.org/2000/svg">
<path d="M159.566 18.4475C181.682 40.5635 184.179 75.396 165.962 100.37L172.759 127.38C173.677 131.059 169.358 133.733 166.465 131.371L148.502 116.662C146.888 117.681 145.222 118.627 143.517 119.498C126.483 153.012 84.5597 163.978 53.4883 144.399L35.5263 159.109C32.62 161.463 28.312 158.794 29.2306 155.118L36.0274 128.107C13.398 97.0868 23.4169 52.3668 58.486 34.5154C77.9937 -3.82174 129.372 -11.7446 159.566 18.4474L159.566 18.4475ZM131.348 124.19C84.0737 136.943 41.3223 93.0932 53.8137 46.6732C28.9723 65.4109 24.6194 100.679 43.3963 124.833C45.5325 127.585 40.6965 141.728 39.7489 145.496C43.2086 142.663 51.7546 133.198 55.7377 136.505C79.9129 153.172 113.378 148.021 131.346 124.192L131.348 124.19ZM154.007 24.0075C119.618 -10.3783 59.5066 13.4795 59.5066 63.1503C59.5066 107.09 109.384 134.182 146.255 108.767C150.238 105.462 158.784 114.925 162.244 117.759C161.295 113.992 156.461 99.8469 158.597 97.0957C175.591 75.2397 173.807 43.81 154.008 24.01L154.007 24.0075Z" fill="white"/>
<path d="M96.4648 90.6643C96.3586 89.9396 96.3719 89.1747 96.5047 88.3696C96.664 87.5375 96.81 86.7996 96.9427 86.1555C96.9958 83.3375 97.0224 80.4792 97.0224 77.5806C97.0489 74.6552 97.0489 71.475 97.0224 68.0397C96.9958 64.6043 96.9693 60.8068 96.9427 56.6467C96.9162 52.4869 96.9029 47.75 96.9029 42.436L96.425 37.0013C96.425 35.8741 96.4781 34.9482 96.5843 34.2236C96.6905 33.4989 96.9029 32.9219 97.2215 32.4925C97.5666 32.0631 98.0313 31.7679 98.6154 31.6068C99.226 31.4458 100.009 31.3653 100.965 31.3653C102.292 31.3653 103.607 31.3519 104.908 31.325C106.209 31.2714 107.523 31.2177 108.85 31.164C110.204 31.1103 111.532 31.0432 112.833 30.9627C114.16 30.8554 115.527 30.8017 116.935 30.8017C117.864 30.8017 119.019 30.8285 120.399 30.8822C121.806 30.9359 123.267 31.1372 124.78 31.4861C126.32 31.8081 127.846 32.318 129.36 33.0159C130.9 33.7136 132.267 34.7067 133.462 35.9949C134.683 37.2831 135.665 38.9202 136.409 40.9063C137.179 42.8654 137.564 45.2809 137.564 48.1526C137.564 50.6217 137.059 52.8894 136.05 54.956C135.041 57.0225 133.754 58.8207 132.187 60.3505C132.851 60.6188 133.488 60.9276 134.099 61.2763C134.71 61.6253 135.254 61.9876 135.732 62.3634C136.236 62.7124 136.661 63.0611 137.006 63.4101C137.378 63.7322 137.657 64.0006 137.842 64.2152C138.984 65.6376 139.913 67.248 140.63 69.0461C141.373 70.8173 141.745 72.5753 141.745 74.3198C141.745 77.3256 141.426 79.9155 140.789 82.0894C140.179 84.2365 139.303 86.0615 138.161 87.5643C137.019 89.0405 135.639 90.2348 134.019 91.1472C132.4 92.0597 130.581 92.771 128.563 93.281C126.572 93.7641 124.395 94.086 122.032 94.247C119.696 94.4082 117.24 94.4886 114.665 94.4886C114.213 94.4886 113.576 94.4618 112.753 94.4082C111.93 94.3544 111.027 94.274 110.045 94.1666C109.063 94.086 108.054 93.9787 107.018 93.8445C105.983 93.7103 105.027 93.5627 104.151 93.4017C103.487 93.6969 102.585 93.8445 101.443 93.8445C100.009 93.8445 98.8543 93.6029 97.9782 93.12C97.1286 92.61 96.6241 91.7913 96.4648 90.6643ZM105.824 57.774C106.806 57.9082 107.802 58.029 108.81 58.1363C109.819 58.2169 110.722 58.2571 111.518 58.2571C114.678 58.2571 117.346 58.1363 119.523 57.8948C121.7 57.6532 123.466 57.1837 124.82 56.4858C126.174 55.7613 127.143 54.7682 127.727 53.5068C128.338 52.2453 128.643 50.5949 128.643 48.5551C128.643 46.8643 128.417 45.4285 127.966 44.2476C127.515 43.0667 126.798 42.114 125.815 41.3894C124.86 40.6379 123.625 40.1011 122.112 39.7791C120.625 39.4302 118.846 39.2557 116.775 39.2557C116.005 39.2557 114.744 39.2691 112.992 39.296C111.266 39.296 108.877 39.3631 105.824 39.4973V39.5778C105.824 39.6314 105.824 39.6851 105.824 39.7388C105.85 39.7656 105.863 39.8059 105.863 39.8596C105.916 42.6239 105.93 45.4285 105.903 48.2733C105.903 51.1183 105.877 54.1107 105.824 57.2507V57.774ZM105.824 85.2698C106.461 85.3772 107.111 85.4844 107.775 85.5918C108.439 85.6991 109.195 85.7931 110.045 85.8735C110.921 85.9541 111.93 86.0213 113.072 86.0749C114.213 86.1285 115.567 86.1555 117.134 86.1555C118.939 86.1555 120.771 86.0481 122.629 85.8333C124.515 85.6186 126.214 85.149 127.727 84.4243C129.267 83.6996 130.515 82.6529 131.47 81.2843C132.453 79.8887 132.944 78.037 132.944 75.7289C132.944 73.8233 132.572 72.2263 131.829 70.9381C131.112 69.6498 130.209 68.6166 129.121 67.8383C128.059 67.0332 126.904 66.4697 125.656 66.1475C124.408 65.7988 123.267 65.6242 122.231 65.6242C121.302 65.6242 120.346 65.6376 119.364 65.6644C118.408 65.6914 117.306 65.7316 116.058 65.7851C114.811 65.8121 113.35 65.8523 111.678 65.9059C110.032 65.9329 108.067 65.9597 105.784 65.9865C105.784 69.2071 105.784 71.8642 105.784 73.9575C105.784 76.0508 105.784 77.8088 105.784 79.2312C105.81 80.6268 105.824 81.7809 105.824 82.6933C105.824 83.6058 105.824 84.4645 105.824 85.2698Z" fill="white"/>
<path d="M4.23789 221V179.84H19.8379C21.8779 179.84 23.6979 180.26 25.2979 181.1C26.8979 181.94 28.1579 183.12 29.0779 184.64C29.9979 186.12 30.4579 187.88 30.4579 189.92C30.4579 192.28 29.8379 194.3 28.5979 195.98C27.3979 197.62 25.9179 198.76 24.1579 199.4V199.64C26.1979 200.28 27.9179 201.52 29.3179 203.36C30.7179 205.2 31.4179 207.44 31.4179 210.08C31.4179 212.4 30.8779 214.38 29.7979 216.02C28.7579 217.62 27.3579 218.86 25.5979 219.74C23.8779 220.58 21.9579 221 19.8379 221H4.23789ZM9.51789 216.2H19.1179C21.0779 216.2 22.6979 215.62 23.9779 214.46C25.2579 213.26 25.8979 211.56 25.8979 209.36C25.8979 207.48 25.2579 205.84 23.9779 204.44C22.6979 203.04 20.9579 202.34 18.7579 202.34H9.51789V216.2ZM9.51789 197.54H18.2779C20.2779 197.54 21.8779 196.9 23.0779 195.62C24.3179 194.3 24.9379 192.78 24.9379 191.06C24.9379 188.9 24.3579 187.3 23.1979 186.26C22.0379 185.18 20.5179 184.64 18.6379 184.64H9.51789V197.54ZM36.1504 221V177.62H41.0704V221H36.1504ZM55.4488 221.72C53.0888 221.72 51.1888 221.02 49.7488 219.62C48.3488 218.18 47.6488 215.7 47.6488 212.18V189.44H52.5688V211.82C52.5688 214.02 52.9688 215.5 53.7688 216.26C54.6088 216.98 55.6888 217.34 57.0088 217.34C58.5688 217.34 59.9288 216.58 61.0888 215.06C62.2888 213.54 62.8888 211.42 62.8888 208.7V189.44H67.8088V221H64.0888L63.4288 217.34H63.0688C62.1888 218.9 61.0888 220.02 59.7688 220.7C58.4488 221.38 57.0088 221.72 55.4488 221.72ZM85.8721 221.72C81.9521 221.72 78.9721 220.44 76.9321 217.88C74.9321 215.28 73.9321 211.06 73.9321 205.22C73.9321 199.54 74.9121 195.38 76.8721 192.74C78.8721 190.06 81.8521 188.72 85.8121 188.72C89.2521 188.72 91.8321 189.88 93.5521 192.2C95.3121 194.48 96.1921 198.26 96.1921 203.54V206.66H79.0921C79.1321 210.34 79.7121 213.04 80.8321 214.76C81.9521 216.48 83.6721 217.34 85.9921 217.34C87.5521 217.34 88.8321 216.72 89.8321 215.48C90.8321 214.2 91.3321 212.46 91.3321 210.26H96.1921C96.1921 213.78 95.2321 216.58 93.3121 218.66C91.4321 220.7 88.9521 221.72 85.8721 221.72ZM79.1521 202.28H91.0321C91.0321 199.28 90.5921 197 89.7121 195.44C88.8321 193.88 87.5321 193.1 85.8121 193.1C83.6121 193.1 81.9921 193.88 80.9521 195.44C79.9521 196.96 79.3521 199.24 79.1521 202.28ZM117.495 221.72C112.175 221.72 108.135 219.96 105.375 216.44C102.655 212.88 101.295 207.54 101.295 200.42C101.295 193.26 102.655 187.92 105.375 184.4C108.135 180.88 112.175 179.12 117.495 179.12C120.295 179.12 122.775 179.7 124.935 180.86C127.095 181.98 128.775 183.7 129.975 186.02C131.215 188.3 131.835 191.2 131.835 194.72H126.435C126.435 191.12 125.615 188.44 123.975 186.68C122.375 184.88 120.215 183.98 117.495 183.98C113.895 183.98 111.215 185.22 109.455 187.7C107.695 190.18 106.815 193.92 106.815 198.92V201.92C106.815 206.92 107.695 210.66 109.455 213.14C111.215 215.62 113.895 216.86 117.495 216.86C120.255 216.86 122.455 215.98 124.095 214.22C125.775 212.46 126.615 209.8 126.615 206.24H131.835C131.835 209.76 131.215 212.68 129.975 215C128.775 217.28 127.095 218.98 124.935 220.1C122.775 221.18 120.295 221.72 117.495 221.72ZM137.883 221V177.62H142.803V192.74H143.163C143.963 191.34 144.943 190.32 146.103 189.68C147.303 189.04 148.683 188.72 150.243 188.72C152.603 188.72 154.483 189.44 155.883 190.88C157.323 192.28 158.043 194.74 158.043 198.26V221H153.123V198.62C153.123 196.42 152.703 194.96 151.863 194.24C151.063 193.48 150.003 193.1 148.683 193.1C147.123 193.1 145.743 193.86 144.543 195.38C143.383 196.9 142.803 199.02 142.803 201.74V221H137.883ZM171.966 221.72C171.206 221.72 170.346 221.6 169.386 221.36C168.426 221.16 167.506 220.76 166.626 220.16C165.786 219.52 165.086 218.62 164.526 217.46C163.966 216.3 163.686 214.76 163.686 212.84C163.686 209.92 164.366 207.72 165.726 206.24C167.126 204.72 169.026 203.68 171.426 203.12C173.866 202.56 176.606 202.28 179.646 202.28V198.2C179.646 196.68 179.306 195.46 178.626 194.54C177.986 193.58 176.666 193.1 174.666 193.1C172.826 193.1 171.546 193.64 170.826 194.72C170.146 195.76 169.806 196.88 169.806 198.08V198.8H164.946C164.906 198.6 164.886 198.4 164.886 198.2C164.886 198 164.886 197.76 164.886 197.48C164.886 194.6 165.826 192.42 167.706 190.94C169.626 189.46 172.066 188.72 175.026 188.72C178.226 188.72 180.606 189.5 182.166 191.06C183.766 192.58 184.566 194.74 184.566 197.54V215.24C184.566 216 184.746 216.54 185.106 216.86C185.466 217.18 185.846 217.34 186.246 217.34H188.166V220.76C187.886 220.92 187.466 221.08 186.906 221.24C186.386 221.4 185.726 221.48 184.926 221.48C183.646 221.48 182.566 221.12 181.686 220.4C180.846 219.68 180.266 218.74 179.946 217.58H179.646C178.846 218.86 177.766 219.88 176.406 220.64C175.086 221.36 173.606 221.72 171.966 221.72ZM173.106 217.34C174.146 217.34 175.166 217.06 176.166 216.5C177.166 215.9 177.986 215.02 178.626 213.86C179.306 212.7 179.646 211.26 179.646 209.54V206.66C177.486 206.66 175.586 206.82 173.946 207.14C172.346 207.42 171.086 207.98 170.166 208.82C169.286 209.66 168.846 210.9 168.846 212.54C168.846 214.34 169.206 215.6 169.926 216.32C170.686 217 171.746 217.34 173.106 217.34ZM198.19 221.6C196.75 221.6 195.61 221.24 194.77 220.52C193.97 219.8 193.39 218.9 193.03 217.82C192.71 216.7 192.55 215.54 192.55 214.34V193.82H189.85V189.44H192.55L193.63 180.68H197.47V189.44H201.73V193.82H197.47V214.46C197.47 216.38 198.41 217.34 200.29 217.34H201.73V220.76C201.33 221 200.79 221.2 200.11 221.36C199.43 221.52 198.79 221.6 198.19 221.6Z" fill="white"/>
</svg>
